<?xml version="1.0" encoding="UTF-8" standalone="no"?>
<svg xmlns="http://www.w3.org/2000/svg" xmlns:xlink="http://www.w3.org/1999/xlink" contentScriptType="application/ecmascript" contentStyleType="text/css" height="487px" preserveAspectRatio="none" style="width:429px;height:487px;" version="1.1" viewBox="0 0 429 487" width="429px" zoomAndPan="magnify"><defs><filter height="300%" id="f1fnqjyzrm2rec" width="300%" x="-1" y="-1"><feGaussianBlur result="blurOut" stdDeviation="2.0"/><feColorMatrix in="blurOut" result="blurOut2" type="matrix" values="0 0 0 0 0 0 0 0 0 0 0 0 0 0 0 0 0 0 .4 0"/><feOffset dx="4.0" dy="4.0" in="blurOut2" result="blurOut3"/><feBlend in="SourceGraphic" in2="blurOut3" mode="normal"/></filter></defs><g><!--MD5=[5b48928ef615c09c6ae65b1bdeb38084]
class Answers--><rect fill="#FEFECE" filter="url(#f1fnqjyzrm2rec)" height="150.4375" id="Answers" style="stroke: #A80036; stroke-width: 1.5;" width="106" x="6" y="104.5"/><ellipse cx="30.9" cy="120.5" fill="#ADD1B2" rx="11" ry="11" style="stroke: #A80036; stroke-width: 1.0;"/><path d="M33.8688,126.1406 Q33.2906,126.4375 32.65,126.5781 Q32.0094,126.7344 31.3063,126.7344 Q28.8063,126.7344 27.4781,125.0938 Q26.1656,123.4375 26.1656,120.3125 Q26.1656,117.1875 27.4781,115.5313 Q28.8063,113.875 31.3063,113.875 Q32.0094,113.875 32.65,114.0313 Q33.3063,114.1875 33.8688,114.4844 L33.8688,117.2031 Q33.2438,116.625 32.65,116.3594 Q32.0563,116.0781 31.4313,116.0781 Q30.0875,116.0781 29.4,117.1563 Q28.7125,118.2188 28.7125,120.3125 Q28.7125,122.4063 29.4,123.4844 Q30.0875,124.5469 31.4313,124.5469 Q32.0563,124.5469 32.65,124.2813 Q33.2438,124 33.8688,123.4219 L33.8688,126.1406 Z "/><text fill="#000000" font-family="sans-serif" font-size="12" lengthAdjust="spacingAndGlyphs" textLength="52" x="47.1" y="124.6543">Answers</text><line style="stroke: #A80036; stroke-width: 1.5;" x1="7" x2="111" y1="136.5" y2="136.5"/><text fill="#000000" font-family="sans-serif" font-size="11" lengthAdjust="spacingAndGlyphs" textLength="63" x="12" y="150.7104">num_posts</text><text fill="#000000" font-family="sans-serif" font-size="11" lengthAdjust="spacingAndGlyphs" textLength="32" x="12" y="163.5151">posts</text><text fill="#000000" font-family="sans-serif" font-size="11" lengthAdjust="spacingAndGlyphs" textLength="47" x="12" y="176.3198">unreads</text><line style="stroke: #A80036; stroke-width: 1.5;" x1="7" x2="111" y1="182.9141" y2="182.9141"/><text fill="#000000" font-family="sans-serif" font-size="11" lengthAdjust="spacingAndGlyphs" textLength="29" x="12" y="197.1245">Add()</text><text fill="#000000" font-family="sans-serif" font-size="11" lengthAdjust="spacingAndGlyphs" textLength="53" x="12" y="209.9292">GetPost()</text><text fill="#000000" font-family="sans-serif" font-size="11" lengthAdjust="spacingAndGlyphs" textLength="63" x="12" y="222.7339">MarkRead()</text><text fill="#000000" font-family="sans-serif" font-size="11" lengthAdjust="spacingAndGlyphs" textLength="66" x="12" y="235.5386">NumberOf()</text><text fill="#000000" font-family="sans-serif" font-size="11" lengthAdjust="spacingAndGlyphs" textLength="94" x="12" y="248.3433">NumberUnread()</text><!--MD5=[98de4c3dfbaf69899f9ea5c6b936164b]
class BitSet--><rect fill="#FEFECE" filter="url(#f1fnqjyzrm2rec)" height="227.2656" id="BitSet" style="stroke: #A80036; stroke-width: 1.5;" width="87" x="147.5" y="66"/><ellipse cx="170.6" cy="82" fill="#ADD1B2" rx="11" ry="11" style="stroke: #A80036; stroke-width: 1.0;"/><path d="M173.5688,87.6406 Q172.9906,87.9375 172.35,88.0781 Q171.7094,88.2344 171.0063,88.2344 Q168.5063,88.2344 167.1781,86.5938 Q165.8656,84.9375 165.8656,81.8125 Q165.8656,78.6875 167.1781,77.0313 Q168.5063,75.375 171.0063,75.375 Q171.7094,75.375 172.35,75.5313 Q173.0063,75.6875 173.5688,75.9844 L173.5688,78.7031 Q172.9438,78.125 172.35,77.8594 Q171.7563,77.5781 171.1313,77.5781 Q169.7875,77.5781 169.1,78.6563 Q168.4125,79.7188 168.4125,81.8125 Q168.4125,83.9063 169.1,84.9844 Q169.7875,86.0469 171.1313,86.0469 Q171.7563,86.0469 172.35,85.7813 Q172.9438,85.5 173.5688,84.9219 L173.5688,87.6406 Z "/><text fill="#000000" font-family="sans-serif" font-size="12" lengthAdjust="spacingAndGlyphs" textLength="37" x="186.4" y="86.1543">BitSet</text><line style="stroke: #A80036; stroke-width: 1.5;" x1="148.5" x2="233.5" y1="98" y2="98"/><text fill="#000000" font-family="sans-serif" font-size="11" lengthAdjust="spacingAndGlyphs" textLength="14" x="153.5" y="112.2104">bit</text><text fill="#000000" font-family="sans-serif" font-size="11" lengthAdjust="spacingAndGlyphs" textLength="25" x="153.5" y="125.0151">bset</text><text fill="#000000" font-family="sans-serif" font-size="11" lengthAdjust="spacingAndGlyphs" textLength="3" x="153.5" y="137.8198">i</text><text fill="#000000" font-family="sans-serif" font-size="11" lengthAdjust="spacingAndGlyphs" textLength="7" x="153.5" y="150.6245">n</text><text fill="#000000" font-family="sans-serif" font-size="11" lengthAdjust="spacingAndGlyphs" textLength="21" x="153.5" y="163.4292">slot</text><text fill="#000000" font-family="sans-serif" font-size="11" lengthAdjust="spacingAndGlyphs" textLength="16" x="153.5" y="176.2339">val</text><line style="stroke: #A80036; stroke-width: 1.5;" x1="148.5" x2="233.5" y1="182.8281" y2="182.8281"/><text fill="#000000" font-family="sans-serif" font-size="11" lengthAdjust="spacingAndGlyphs" textLength="68" x="153.5" y="197.0386">BitIdxToBit()</text><text fill="#000000" font-family="sans-serif" font-size="11" lengthAdjust="spacingAndGlyphs" textLength="75" x="153.5" y="209.8433">BitIdxToSlot()</text><text fill="#000000" font-family="sans-serif" font-size="11" lengthAdjust="spacingAndGlyphs" textLength="53" x="153.5" y="222.6479">ClearBit()</text><text fill="#000000" font-family="sans-serif" font-size="11" lengthAdjust="spacingAndGlyphs" textLength="62" x="153.5" y="235.4526">PopCount()</text><text fill="#000000" font-family="sans-serif" font-size="11" lengthAdjust="spacingAndGlyphs" textLength="36" x="153.5" y="248.2573">Push()</text><text fill="#000000" font-family="sans-serif" font-size="11" lengthAdjust="spacingAndGlyphs" textLength="42" x="153.5" y="261.062">SetBit()</text><text fill="#000000" font-family="sans-serif" font-size="11" lengthAdjust="spacingAndGlyphs" textLength="48" x="153.5" y="273.8667">TestBit()</text><text fill="#000000" font-family="sans-serif" font-size="11" lengthAdjust="spacingAndGlyphs" textLength="61" x="153.5" y="286.6714">ToggleBit()</text><!--MD5=[6921be5be463eb49fd172588710ec7b4]
class Questions--><rect fill="#FEFECE" filter="url(#f1fnqjyzrm2rec)" height="342.5078" id="Questions" style="stroke: #A80036; stroke-width: 1.5;" width="98" x="270" y="8"/><ellipse cx="286.35" cy="24" fill="#ADD1B2" rx="11" ry="11" style="stroke: #A80036; stroke-width: 1.0;"/><path d="M289.3188,29.6406 Q288.7406,29.9375 288.1,30.0781 Q287.4594,30.2344 286.7563,30.2344 Q284.2563,30.2344 282.9281,28.5938 Q281.6156,26.9375 281.6156,23.8125 Q281.6156,20.6875 282.9281,19.0313 Q284.2563,17.375 286.7563,17.375 Q287.4594,17.375 288.1,17.5313 Q288.7563,17.6875 289.3188,17.9844 L289.3188,20.7031 Q288.6938,20.125 288.1,19.8594 Q287.5063,19.5781 286.8813,19.5781 Q285.5375,19.5781 284.85,20.6563 Q284.1625,21.7188 284.1625,23.8125 Q284.1625,25.9063 284.85,26.9844 Q285.5375,28.0469 286.8813,28.0469 Q287.5063,28.0469 288.1,27.7813 Q288.6938,27.5 289.3188,26.9219 L289.3188,29.6406 Z "/><text fill="#000000" font-family="sans-serif" font-size="12" lengthAdjust="spacingAndGlyphs" textLength="63" x="300.65" y="28.1543">Questions</text><line style="stroke: #A80036; stroke-width: 1.5;" x1="271" x2="367" y1="40" y2="40"/><text fill="#000000" font-family="sans-serif" font-size="11" lengthAdjust="spacingAndGlyphs" textLength="49" x="276" y="54.2104">answers</text><text fill="#000000" font-family="sans-serif" font-size="11" lengthAdjust="spacingAndGlyphs" textLength="38" x="276" y="67.0151">bodies</text><text fill="#000000" font-family="sans-serif" font-size="11" lengthAdjust="spacingAndGlyphs" textLength="3" x="276" y="79.8198">i</text><text fill="#000000" font-family="sans-serif" font-size="11" lengthAdjust="spacingAndGlyphs" textLength="32" x="276" y="92.6245">qtags</text><text fill="#000000" font-family="sans-serif" font-size="11" lengthAdjust="spacingAndGlyphs" textLength="47" x="276" y="105.4292">resolver</text><text fill="#000000" font-family="sans-serif" font-size="11" lengthAdjust="spacingAndGlyphs" textLength="40" x="276" y="118.2339">results</text><text fill="#000000" font-family="sans-serif" font-size="11" lengthAdjust="spacingAndGlyphs" textLength="18" x="276" y="131.0386">tag</text><text fill="#000000" font-family="sans-serif" font-size="11" lengthAdjust="spacingAndGlyphs" textLength="42" x="276" y="143.8433">tag_set</text><text fill="#000000" font-family="sans-serif" font-size="11" lengthAdjust="spacingAndGlyphs" textLength="28" x="276" y="156.6479">titles</text><line style="stroke: #A80036; stroke-width: 1.5;" x1="271" x2="367" y1="163.2422" y2="163.2422"/><text fill="#000000" font-family="sans-serif" font-size="11" lengthAdjust="spacingAndGlyphs" textLength="29" x="276" y="177.4526">Add()</text><text fill="#000000" font-family="sans-serif" font-size="11" lengthAdjust="spacingAndGlyphs" textLength="71" x="276" y="190.2573">AddAnswer()</text><text fill="#000000" font-family="sans-serif" font-size="11" lengthAdjust="spacingAndGlyphs" textLength="44" x="276" y="203.062">Delete()</text><text fill="#000000" font-family="sans-serif" font-size="11" lengthAdjust="spacingAndGlyphs" textLength="66" x="276" y="215.8667">FindByTag()</text><text fill="#000000" font-family="sans-serif" font-size="11" lengthAdjust="spacingAndGlyphs" textLength="69" x="276" y="228.6714">FindByTitle()</text><text fill="#000000" font-family="sans-serif" font-size="11" lengthAdjust="spacingAndGlyphs" textLength="77" x="276" y="241.4761">GetAnswers()</text><text fill="#000000" font-family="sans-serif" font-size="11" lengthAdjust="spacingAndGlyphs" textLength="56" x="276" y="254.2808">GetBody()</text><text fill="#000000" font-family="sans-serif" font-size="11" lengthAdjust="spacingAndGlyphs" textLength="77" x="276" y="267.0854">GetResolver()</text><text fill="#000000" font-family="sans-serif" font-size="11" lengthAdjust="spacingAndGlyphs" textLength="56" x="276" y="279.8901">GetTags()</text><text fill="#000000" font-family="sans-serif" font-size="11" lengthAdjust="spacingAndGlyphs" textLength="52" x="276" y="292.6948">GetTitle()</text><text fill="#000000" font-family="sans-serif" font-size="11" lengthAdjust="spacingAndGlyphs" textLength="69" x="276" y="305.4995">IsResolved()</text><text fill="#000000" font-family="sans-serif" font-size="11" lengthAdjust="spacingAndGlyphs" textLength="86" x="276" y="318.3042">MarkResolved()</text><text fill="#000000" font-family="sans-serif" font-size="11" lengthAdjust="spacingAndGlyphs" textLength="66" x="276" y="331.1089">NumberOf()</text><text fill="#000000" font-family="sans-serif" font-size="11" lengthAdjust="spacingAndGlyphs" textLength="60" x="276" y="343.9136">_IdxGood()</text><!--MD5=[081e18de64b05ec8ae686bcc1669da5e]
class HashSet--><rect fill="#FEFECE" filter="url(#f1fnqjyzrm2rec)" height="48" id="HashSet" style="stroke: #A80036; stroke-width: 1.5;" width="85" x="186.5" y="428"/><ellipse cx="201.5" cy="444" fill="#ADD1B2" rx="11" ry="11" style="stroke: #A80036; stroke-width: 1.0;"/><path d="M204.4688,449.6406 Q203.8906,449.9375 203.25,450.0781 Q202.6094,450.2344 201.9063,450.2344 Q199.4063,450.2344 198.0781,448.5938 Q196.7656,446.9375 196.7656,443.8125 Q196.7656,440.6875 198.0781,439.0313 Q199.4063,437.375 201.9063,437.375 Q202.6094,437.375 203.25,437.5313 Q203.9063,437.6875 204.4688,437.9844 L204.4688,440.7031 Q203.8438,440.125 203.25,439.8594 Q202.6563,439.5781 202.0313,439.5781 Q200.6875,439.5781 200,440.6563 Q199.3125,441.7188 199.3125,443.8125 Q199.3125,445.9063 200,446.9844 Q200.6875,448.0469 202.0313,448.0469 Q202.6563,448.0469 203.25,447.7813 Q203.8438,447.5 204.4688,446.9219 L204.4688,449.6406 Z "/><text fill="#000000" font-family="sans-serif" font-size="12" lengthAdjust="spacingAndGlyphs" textLength="53" x="215.5" y="448.1543">HashSet</text><line style="stroke: #A80036; stroke-width: 1.5;" x1="187.5" x2="270.5" y1="460" y2="460"/><line style="stroke: #A80036; stroke-width: 1.5;" x1="187.5" x2="270.5" y1="468" y2="468"/><!--MD5=[ab8871ed637f40707b866ba6597734bc]
class ArrayList--><rect fill="#FEFECE" filter="url(#f1fnqjyzrm2rec)" height="48" id="ArrayList" style="stroke: #A80036; stroke-width: 1.5;" width="85" x="333.5" y="428"/><ellipse cx="348.5" cy="444" fill="#ADD1B2" rx="11" ry="11" style="stroke: #A80036; stroke-width: 1.0;"/><path d="M351.4688,449.6406 Q350.8906,449.9375 350.25,450.0781 Q349.6094,450.2344 348.9063,450.2344 Q346.4063,450.2344 345.0781,448.5938 Q343.7656,446.9375 343.7656,443.8125 Q343.7656,440.6875 345.0781,439.0313 Q346.4063,437.375 348.9063,437.375 Q349.6094,437.375 350.25,437.5313 Q350.9063,437.6875 351.4688,437.9844 L351.4688,440.7031 Q350.8438,440.125 350.25,439.8594 Q349.6563,439.5781 349.0313,439.5781 Q347.6875,439.5781 347,440.6563 Q346.3125,441.7188 346.3125,443.8125 Q346.3125,445.9063 347,446.9844 Q347.6875,448.0469 349.0313,448.0469 Q349.6563,448.0469 350.25,447.7813 Q350.8438,447.5 351.4688,446.9219 L351.4688,449.6406 Z "/><text fill="#000000" font-family="sans-serif" font-size="12" lengthAdjust="spacingAndGlyphs" textLength="53" x="362.5" y="448.1543">ArrayList</text><line style="stroke: #A80036; stroke-width: 1.5;" x1="334.5" x2="417.5" y1="460" y2="460"/><line style="stroke: #A80036; stroke-width: 1.5;" x1="334.5" x2="417.5" y1="468" y2="468"/><!--MD5=[469b1ad67e40581404aebb607ab67b9d]
link Questions to HashSet--><path d="M266.1832,338.3168 C266.1832,338.3168 256.49,367.46 252,381 C248.31,392.14 244.31,404.28 240.7,415.27 " fill="none" id="Questions-HashSet" style="stroke: #A80036; stroke-width: 1.0;"/><polygon fill="#A80036" points="236.53,427.98,243.1379,420.6768,238.0897,423.2295,235.5371,418.1813,236.53,427.98" style="stroke: #A80036; stroke-width: 1.0;"/><line style="stroke: #A80036; stroke-width: 1.0;" x1="238.0897" x2="240.585" y1="423.2295" y2="415.62"/><polygon fill="#A80036" points="269.97,326.93,264.281,331.3611,266.1832,338.3168,271.8722,333.8857,269.97,326.93" style="stroke: #A80036; stroke-width: 1.0;"/><text fill="#000000" font-family="sans-serif" font-size="13" lengthAdjust="spacingAndGlyphs" textLength="48" x="253" y="394.0669">tag_set</text><!--MD5=[efbd275a844ba8e62eaedcd469d86033]
link Questions to ArrayList--><path d="M304.6796,362.9734 C304.6796,362.9734 311.13,387.19 316,398 C319.45,405.65 324.61,412.64 330.48,418.85 " fill="none" id="Questions-ArrayList" style="stroke: #A80036; stroke-width: 1.0;"/><polygon fill="#A80036" points="340.15,427.97,336.3445,418.886,336.5116,424.5404,330.8572,424.7075,340.15,427.97" style="stroke: #A80036; stroke-width: 1.0;"/><line style="stroke: #A80036; stroke-width: 1.0;" x1="336.5116" x2="330.69" y1="424.5404" y2="419.05"/><polygon fill="#A80036" points="302.41,351.19,299.617,357.8382,304.6796,362.9734,307.4726,356.3252,302.41,351.19" style="stroke: #A80036; stroke-width: 1.0;"/><text fill="#000000" font-family="sans-serif" font-size="13" lengthAdjust="spacingAndGlyphs" textLength="43" x="317" y="394.0669">results</text><!--MD5=[efbd275a844ba8e62eaedcd469d86033]
link Questions to ArrayList--><path d="M361.4317,362.9952 C361.4317,362.9952 363.94,375.53 365,381 C367.11,391.96 369.11,403.94 370.81,414.84 " fill="none" id="Questions-ArrayList-1" style="stroke: #A80036; stroke-width: 1.0;"/><polygon fill="#A80036" points="372.79,427.91,375.4004,418.4134,372.0429,422.9661,367.4902,419.6087,372.79,427.91" style="stroke: #A80036; stroke-width: 1.0;"/><line style="stroke: #A80036; stroke-width: 1.0;" x1="372.0429" x2="370.84" y1="422.9661" y2="415.06"/><polygon fill="#A80036" points="359.02,351.24,356.3074,357.9215,361.4317,362.9952,364.1442,356.3137,359.02,351.24" style="stroke: #A80036; stroke-width: 1.0;"/><text fill="#000000" font-family="sans-serif" font-size="13" lengthAdjust="spacingAndGlyphs" textLength="43" x="368" y="394.0669">results</text><!--MD5=[49301d8f81176eaeb2f7e5b2d961fbfd]
@startuml
class Answers {
    num_posts
    posts
    unreads
    Add()
    GetPost()
    MarkRead()
    NumberOf()
    NumberUnread()
}
class BitSet {
    bit
    bset
    i
    n
    slot
    val
    BitIdxToBit()
    BitIdxToSlot()
    ClearBit()
    PopCount()
    Push()
    SetBit()
    TestBit()
    ToggleBit()
}
class Questions {
    answers
    bodies
    i
    qtags
    resolver
    results
    tag
    tag_set
    titles
    Add()
    AddAnswer()
    Delete()
    FindByTag()
    FindByTitle()
    GetAnswers()
    GetBody()
    GetResolver()
    GetTags()
    GetTitle()
    IsResolved()
    MarkResolved()
    NumberOf()
    _IdxGood()
}

Questions *- -> HashSet : tag_set
Questions *- -> ArrayList : results
Questions *- -> ArrayList : results
@enduml

PlantUML version 1.2020.08(Sun Apr 26 14:08:22 UTC 2020)
(GPL source distribution)
Java Runtime: OpenJDK Runtime Environment
JVM: OpenJDK 64-Bit Server VM
Java Version: 1.8.0_402-heroku-b06
Operating System: Linux
Default Encoding: UTF-8
Language: en
Country: US
--></g></svg>